<svg width="202" height="202" viewBox="0 0 202 202" fill="none" xmlns="http://www.w3.org/2000/svg">
<circle opacity="0.202683" cx="101" cy="101" r="101" transform="matrix(0 1 1 0 0 0)" fill="url(#paint0_linear_0_1)"/>
<path d="M81.9065 100.048H133.717L152.513 72.3942H103.604L81.9065 100.048Z" fill="#231F20"/>
<path fill-rule="evenodd" clip-rule="evenodd" d="M81.8923 100.403H133.717C133.836 100.406 133.948 100.347 134.014 100.247L152.81 72.6003C152.881 72.4873 152.881 72.3438 152.81 72.2308C152.747 72.116 152.629 72.043 152.499 72.0389H103.59C103.482 72.0384 103.38 72.0883 103.314 72.1739L81.6163 99.8276C81.5323 99.9342 81.5164 100.08 81.5751 100.202C81.6338 100.324 81.7569 100.403 81.8923 100.403ZM133.554 99.6926H82.6353L103.774 72.7495H151.869L133.554 99.6926Z" fill="#231F20"/>
<path d="M79.6418 90.9532C79.6418 90.9532 94.1637 109.143 100.37 108.638C106.577 108.134 124.354 85.7095 124.354 85.7095C127.567 81.8584 131.162 76.97 128.862 71.6624C128.635 71.1508 128.239 70.6037 127.687 70.6463C127.455 70.6821 127.234 70.7722 127.043 70.9092L125.062 72.1313C125.125 71.5842 124.432 71.1934 123.901 71.3426C123.384 71.5455 122.954 71.9222 122.684 72.4084C120.624 75.35 119.294 78.1495 119.407 81.7732L98.6292 92.4311L90.3846 83.2724" fill="white"/>
<path d="M100.122 109.001C93.6754 109.001 79.9532 91.9479 79.3658 91.1734C79.2641 91.0198 79.2965 90.8135 79.4403 90.6987C79.5842 90.5838 79.7917 90.5987 79.9178 90.7329C80.0594 90.9105 94.0151 108.297 100.101 108.297H100.342C106.329 107.814 123.887 85.7237 124.057 85.4963C127.376 81.5316 130.723 76.8847 128.522 71.8187C128.437 71.6197 128.14 70.9874 127.701 71.0158C127.524 71.0481 127.357 71.1211 127.213 71.229L125.217 72.444C125.102 72.5154 124.957 72.5147 124.842 72.4422C124.728 72.3696 124.665 72.2379 124.679 72.1029C124.688 71.9984 124.64 71.8973 124.552 71.84C124.389 71.709 124.177 71.657 123.972 71.6979C123.536 71.8845 123.175 72.2121 122.946 72.6287C121.205 75.1155 119.612 77.9434 119.733 81.7803C119.737 81.9171 119.663 82.0442 119.542 82.1071L98.7637 92.765C98.6209 92.8387 98.4465 92.8066 98.3391 92.6869L90.1015 83.514C90.0345 83.4473 89.9968 83.3564 89.9968 83.2617C89.9968 83.167 90.0345 83.0762 90.1015 83.0095C90.2415 82.8732 90.464 82.8732 90.604 83.0095L98.6575 91.9479L119.004 81.5387C118.94 77.6095 120.568 74.7176 122.344 72.1811C122.663 71.6263 123.163 71.1995 123.759 70.9732C124.195 70.8681 124.654 70.9761 124.998 71.2645C125.093 71.3479 125.174 71.4463 125.238 71.5558L126.824 70.5824C127.063 70.4141 127.34 70.3068 127.63 70.2697C128.246 70.22 128.791 70.6747 129.145 71.499C131.707 77.3963 127.078 82.9384 124.587 85.9155C123.88 86.825 106.669 108.461 100.377 108.972L100.122 109.001Z" fill="#231F20"/>
<path d="M60.3784 47.9734C59.8261 47.6406 59.345 47.2011 58.9631 46.6803C58.433 45.9173 58.049 45.0619 57.8308 44.1579C55.9129 37.1947 55.8988 28.2776 62.0769 23.51C65.7745 20.6731 70.6126 19.8124 75.056 21.2008C78.0566 22.1813 80.6043 26.3237 81.9418 29.0166C83.0388 31.1979 83.7818 33.571 85.084 35.6316C86.3861 37.6921 88.4597 39.4968 90.8941 39.6176C88.9407 40.715 86.595 40.8563 84.5249 40.0013C85.4978 41.3125 87.1441 41.9319 88.7357 41.5858C87.3203 42.7155 85.2963 42.6729 83.5129 42.2963C81.7295 41.9197 79.9744 41.3513 78.1415 41.5858C75.3108 41.9055 73.4708 43.9945 71.2557 45.5079C68.4461 47.3553 63.5914 49.8421 60.3784 47.9734Z" fill="white"/>
<path fill-rule="evenodd" clip-rule="evenodd" d="M60.2157 48.2861C61.0791 48.7726 62.0566 49.0179 63.0464 48.9966C66.2593 48.9966 69.7978 46.8721 71.4467 45.7211C72.02 45.3232 72.572 44.8968 73.1098 44.4776C73.1797 44.4244 73.2495 44.3713 73.3191 44.3182C74.8207 43.173 76.2628 42.0731 78.1769 41.8558C79.521 41.7814 80.868 41.9352 82.1612 42.3105L82.1612 42.3105C82.5858 42.41 83.0104 42.5095 83.435 42.5876C85.827 43.0495 87.6812 42.7795 88.948 41.7776C89.0808 41.6746 89.1233 41.492 89.0496 41.3405C88.9759 41.189 88.8063 41.1104 88.6437 41.1524C87.6934 41.3633 86.6986 41.1952 85.8695 40.6834C87.6371 41.0159 89.4648 40.7168 91.0357 39.8379C91.1764 39.7636 91.247 39.6012 91.2055 39.4471C91.1704 39.2935 91.0368 39.1828 90.88 39.1771C87.9855 39.035 86.0606 36.4629 85.3529 35.3616C84.5977 34.0845 83.9446 32.7492 83.3997 31.3684C83.0387 30.5087 82.6566 29.6205 82.232 28.7679C80.9793 26.2455 78.368 21.8545 75.155 20.81C70.5987 19.3768 65.6327 20.2594 61.8433 23.1761C54.0941 29.1729 56.5569 40.7829 57.491 44.1934C57.7185 45.1504 58.1217 46.0564 58.68 46.865C59.0882 47.4405 59.6112 47.9244 60.2157 48.2861ZM62.2609 23.7658C64.7111 21.8839 67.7107 20.865 70.7957 20.8668C72.2052 20.8601 73.607 21.0759 74.9498 21.5063C78.0353 22.5082 80.6467 27.155 81.6233 29.1089C81.9822 29.7781 82.2769 30.4794 82.5664 31.1686C82.6366 31.3356 82.7065 31.5019 82.7769 31.6668C83.3349 33.0836 84.0071 34.4524 84.7867 35.7595C85.8646 37.6479 87.6101 39.0605 89.6769 39.7171C88.0547 40.2974 86.2768 40.2595 84.6806 39.6105C84.5358 39.5455 84.3654 39.5897 84.2701 39.7171C84.1758 39.8434 84.1758 40.0171 84.2701 40.1434C84.9771 41.0948 86.0255 41.732 87.1929 41.9197C86.015 42.1953 84.7898 42.1953 83.612 41.9197C83.2988 41.8611 82.9857 41.7905 82.6726 41.7199C82.5682 41.6964 82.4638 41.6728 82.3593 41.6497C80.9813 41.2495 79.5449 41.0909 78.1132 41.1808C75.9123 41.4295 74.2704 42.7084 72.6852 43.9447C72.1615 44.3568 71.6166 44.7832 71.0646 45.1597C69.4652 46.2468 63.9806 49.6574 60.5695 47.6679C60.0515 47.3623 59.6011 46.9537 59.2461 46.4671C58.7375 45.7319 58.3703 44.9078 58.1633 44.0371C57.2504 40.7261 54.8655 29.4997 62.2609 23.7658Z" fill="#231F20"/>
<path d="M79.5569 42.9145C79.5569 42.9145 81.4889 48.9824 80.4769 49.8421C79.4649 50.7018 77.363 49.3518 77.363 49.3518" fill="white"/>
<path d="M79.6206 50.4887C78.755 50.4143 77.9211 50.1263 77.1932 49.6503C77.0795 49.5852 77.0109 49.4623 77.0148 49.331C77.0187 49.1996 77.0946 49.0812 77.212 49.0231C77.3294 48.9649 77.4691 48.9766 77.5753 49.0534C78.0707 49.3661 79.6206 50.1405 80.2646 49.5721C80.7529 49.1529 80.123 45.849 79.2172 43.0282C79.1615 42.8401 79.265 42.6416 79.4507 42.5805C79.6363 42.5199 79.8359 42.6216 79.8966 42.8079C80.3636 44.2858 81.8144 49.2026 80.7246 50.1121C80.4162 50.3714 80.0224 50.5057 79.6206 50.4887Z" fill="#231F20"/>
<path d="M80.7316 35.9584C82.3806 38.3174 80.7316 41.8558 80.024 44.2645C79.0473 47.656 77.9929 51.0216 76.8606 54.361C76.1529 56.4926 70.5763 54.9508 69.7836 54.0342L68.2692 62.7808L56.5427 58.7095L60.3147 48.1013C60.3147 48.1013 64.0867 49.1955 67.4836 45.4226C70.8806 41.6497 73.2443 32.0292 73.2443 32.0292C73.2443 32.0292 79.1252 33.6492 80.7316 35.9584Z" fill="white"/>
<path fill-rule="evenodd" clip-rule="evenodd" d="M68.1489 63.1361H68.2622C68.3151 63.1322 68.3661 63.1151 68.4108 63.0863C68.5018 63.0367 68.5645 62.9474 68.5806 62.8447L69.996 54.6595C71.6952 55.5479 73.619 55.909 75.5231 55.6968C76.2424 55.6338 76.8684 55.1774 77.1508 54.5103C78.2831 51.1779 79.3446 47.7745 80.3212 44.3995C80.4416 43.9945 80.5831 43.5611 80.7317 43.1063L80.7457 43.0638C81.5145 40.7273 82.4425 37.9066 80.9794 35.7879C79.3443 33.4477 73.7279 31.8492 73.3039 31.7286C73.2967 31.7265 73.291 31.7249 73.2868 31.7237C73.2006 31.6882 73.104 31.6882 73.0179 31.7237C72.9353 31.771 72.8763 31.8509 72.8551 31.9439C72.8551 32.0434 70.3923 41.6284 67.1936 45.1811C64.0505 48.6718 60.6478 47.8271 60.3893 47.7629C60.3847 47.7618 60.3811 47.7609 60.3785 47.7603C60.2011 47.7084 60.0144 47.8053 59.9539 47.9805L56.2102 58.6242C56.1783 58.7138 56.1783 58.8117 56.2102 58.9013C56.2511 58.9865 56.3254 59.0509 56.4154 59.0789L68.1489 63.1361ZM67.9862 62.3118L56.9886 58.4892L60.5059 48.4992C61.532 48.6982 64.7449 48.9468 67.7102 45.6571C70.7957 42.2324 72.9896 34.2887 73.4637 32.4768C74.7517 32.8605 79.1394 34.3384 80.4132 36.1574C81.6711 37.9535 80.8037 40.6087 80.1003 42.7615L80.0736 42.8434C80.0253 42.9956 79.9771 43.1448 79.9298 43.2911C79.8315 43.5953 79.7373 43.8867 79.656 44.165C78.6865 47.5329 77.6179 50.9221 76.4926 54.2403C76.3652 54.6239 75.9972 54.8797 75.3886 55.0005C73.5911 55.3558 70.5268 54.3895 70.0173 53.7997C69.9279 53.6963 69.7873 53.6536 69.6558 53.69C69.5244 53.7264 69.4254 53.8355 69.4016 53.9703L67.9862 62.3118Z" fill="#231F20"/>
<path d="M77.4904 51.8032C77.4904 51.8032 74.412 52.6842 73.7821 49.565L77.4904 51.8032Z" fill="white"/>
<path d="M76.5493 52.2721C75.942 52.2877 75.3422 52.1353 74.8154 51.8316C74.0521 51.3371 73.5368 50.5377 73.4 49.6361C73.3653 49.4418 73.4917 49.2553 73.6845 49.2166C73.8772 49.1779 74.0654 49.3012 74.1077 49.4939C74.2027 50.1942 74.5883 50.8214 75.1693 51.2205C75.85 51.5646 76.6315 51.6504 77.3702 51.4621C77.4966 51.4278 77.6316 51.4639 77.7244 51.5567C77.8172 51.6495 77.8536 51.7849 77.8199 51.9119C77.7863 52.039 77.6877 52.1384 77.5613 52.1726C77.2292 52.2471 76.8894 52.2805 76.5493 52.2721Z" fill="#231F20"/>
<path d="M72.4588 43.2626C72.6025 42.3855 72.5021 41.4856 72.1686 40.6621C71.9961 39.9972 71.7292 39.3607 71.376 38.7721C71.0042 38.1846 70.393 37.7919 69.7059 37.6992C69.0885 37.6881 68.4968 37.9475 68.0853 38.4097C67.6721 38.8549 67.3669 39.3898 67.1936 39.9729C66.3606 42.5327 66.9454 45.3441 68.7293 47.3553L68.5948 47.0995" fill="white"/>
<path d="M68.7293 47.7105C68.6303 47.7095 68.5359 47.6685 68.4674 47.5968C66.5951 45.479 65.9811 42.5235 66.8539 39.8308C67.0436 39.1962 67.3779 38.6148 67.8305 38.1326C68.3236 37.6087 69.0165 37.3216 69.7342 37.344C70.5318 37.4347 71.2439 37.8878 71.6662 38.5732C72.0421 39.189 72.3258 39.8569 72.5083 40.5555C72.8631 41.4407 72.966 42.4074 72.8056 43.3479C72.7537 43.5394 72.5581 43.6534 72.3668 43.6037C72.1799 43.5518 72.0694 43.3585 72.1191 43.1703C72.2377 42.3581 72.1375 41.5289 71.829 40.7687C71.6702 40.1373 71.4173 39.5336 71.0788 38.9782C70.7715 38.4702 70.2506 38.1302 69.6634 38.0545C69.1539 38.0446 68.6645 38.2541 68.3188 38.63C67.9424 39.0346 67.6639 39.5209 67.505 40.0511C66.7611 42.3362 67.1931 44.8429 68.6585 46.7442C68.758 46.7716 68.8422 46.8382 68.892 46.929L69.0194 47.1847C69.1042 47.3429 69.0551 47.5399 68.9062 47.6395C68.8554 47.68 68.7939 47.7047 68.7293 47.7105Z" fill="#231F20"/>
<ellipse cx="79.2965" cy="39.9852" rx="1.25739" ry="0.5" transform="rotate(-77.39 79.2965 39.9852)" fill="#231F20"/>
<path d="M69.7766 54.0342C68.239 53.0325 66.7664 51.9337 65.3676 50.7445C65.3676 50.7445 64.66 56.8976 68.8566 58.3116L69.7766 54.0342Z" fill="#231F20"/>
<path fill-rule="evenodd" clip-rule="evenodd" d="M68.7434 58.6668C68.7808 58.6736 68.8192 58.6736 68.8566 58.6668C68.9181 58.6669 68.9787 58.6523 69.0335 58.6242C69.1202 58.5732 69.1817 58.4882 69.2034 58.3897L70.1234 54.1266C70.1503 53.9832 70.089 53.8376 69.9677 53.7571C68.4438 52.7597 66.9831 51.6681 65.5942 50.4887C65.4924 50.4069 65.3551 50.3853 65.2332 50.4318C65.1131 50.4821 65.0293 50.5934 65.0138 50.7232C64.9855 50.9861 64.3415 57.1818 68.7434 58.6668ZM68.6018 57.8284C65.8843 56.6205 65.6862 52.9897 65.6862 51.4692C66.8694 52.4427 68.1024 53.3534 69.3803 54.1976L68.6018 57.8284Z" fill="#231F20"/>
<path d="M36.0055 119.381C36.0055 119.381 36.6424 75.8971 43.139 65.8858C49.6356 55.8745 66.4929 53.615 74.5323 59.5834C82.5716 65.5518 78.7006 111.168 78.7006 111.168C78.7006 111.168 53.068 119.381 36.0055 119.381Z" fill="#E7816B"/>
<path d="M68.9203 57.0255C73.1966 58.7696 77.1933 61.1375 80.7812 64.0526C86.3437 68.6924 98.0843 88.6439 98.0843 88.6439L82.6 98.0584L68.7009 80.8495L68.9203 57.0255Z" fill="#E7816B"/>
<path d="M49.8338 59.7326C49.8338 59.7326 41.7307 60.6492 37.4421 69.5805C35.1209 74.4263 29.1763 90.0721 29.1763 90.0721L47.0526 92.1397L49.8338 59.7326Z" fill="#E7816B"/>
<path d="M122.655 75.6342L126.109 64.8697L127.185 65.1824L125.012 75.7976C125.012 75.7976 123.483 77.2755 122.655 75.6342Z" fill="#231F20"/>
<path fill-rule="evenodd" clip-rule="evenodd" d="M123.476 76.7639H123.717C124.294 76.7249 124.839 76.4863 125.26 76.0889C125.31 76.0412 125.345 75.9793 125.359 75.9113L127.531 65.2534C127.568 65.0723 127.461 64.893 127.284 64.8413L126.208 64.5287C126.023 64.4809 125.833 64.5827 125.769 64.7632L122.337 75.5418C122.302 75.6283 122.302 75.7254 122.337 75.8118C122.536 76.2989 122.963 76.6554 123.476 76.7639ZM123.568 76.0463C123.324 75.9863 123.119 75.8195 123.009 75.5916L126.314 65.3103L126.746 65.4311L124.658 75.6129C124.365 75.8944 123.974 76.0499 123.568 76.0463Z" fill="#231F20"/>
<path d="M57.3496 51.2632C50.9804 49.8421 43.9034 50.8368 38.7585 54.8158C36.5781 56.4136 34.94 58.6461 34.0665 61.2105C33.2263 63.8258 33.7183 66.6886 35.3828 68.87C40.2659 74.7603 50.9874 74.7318 57.6185 72.8063C62.1407 71.4989 75.5302 65.1184 71.8431 58.8516C69.1893 54.3682 62.1265 52.2934 57.3496 51.2632Z" fill="#E7816B"/>
<path d="M49.2394 73.3392C45.0193 73.2163 40.8983 72.0262 37.2582 69.8789C37.1768 69.8305 37.1186 69.7507 37.0972 69.6581C37.0758 69.5655 37.0931 69.4682 37.145 69.3887C37.2507 69.2241 37.4691 69.1764 37.6333 69.2821C37.7182 69.3389 46.4723 74.8029 54.7594 71.6482C58.7366 70.1347 61.1286 67.4489 63.4145 64.8555C65.941 62.0134 68.3259 59.3276 72.4446 58.9511C72.5386 58.9432 72.6317 58.9733 72.7035 59.0347C72.7752 59.096 72.8196 59.1836 72.8268 59.2779C72.8366 59.3715 72.8083 59.465 72.7483 59.5373C72.6884 59.6096 72.6018 59.6544 72.5083 59.6616C68.6726 60.0097 66.4788 62.5037 63.9453 65.3458C61.6948 67.8824 59.1471 70.7529 55.0071 72.3303C53.1611 73.0138 51.2069 73.3557 49.2394 73.3392Z" fill="#231F20"/>
<rect x="136.441" y="29.45" width="42.964" height="30.2826" fill="white"/>
<path fill-rule="evenodd" clip-rule="evenodd" d="M136.441 60.0879H179.398C179.594 60.0879 179.752 59.9288 179.752 59.7326V29.45C179.752 29.2538 179.594 29.0947 179.398 29.0947H136.441C136.246 29.0947 136.087 29.2538 136.087 29.45V59.7326C136.087 59.9288 136.246 60.0879 136.441 60.0879ZM179.044 59.3774H136.795V29.8053H179.044V59.3774Z" fill="#D1D3D4"/>
<path fill-rule="evenodd" clip-rule="evenodd" d="M146.505 53.2953C147.324 53.5815 148.185 53.7303 149.052 53.7358C151.027 53.6424 152.93 52.9651 154.523 51.7889C156.264 50.6592 157.028 49.5437 156.858 48.3784C156.686 47.6784 156.329 47.0379 155.825 46.5239C155.391 46.1068 155.084 45.5746 154.94 44.9892C154.964 44.3256 155.18 43.6834 155.563 43.1418C156.662 41.3461 156.771 39.1113 155.853 37.216C154.82 35.2195 152.654 33.8908 149.909 33.5782C147.93 33.3817 145.977 34.1445 144.65 35.6316C143.44 37.0595 142.945 38.9643 143.306 40.8042C143.362 41.0884 143.433 41.3797 143.511 41.6782L143.519 41.7106C143.799 42.8709 144.064 43.966 143.362 44.7192C143.027 45.0175 142.644 45.2576 142.23 45.4297C141.607 45.6639 141.066 46.0765 140.673 46.6163C140.426 47.0716 140.341 47.5981 140.433 48.1084C140.687 49.5137 141.51 50.7506 142.704 51.526L142.704 51.5261C142.938 51.6824 143.171 51.8387 143.412 51.9737C144.397 52.5145 145.433 52.9572 146.505 53.2953ZM146.731 52.6203C145.703 52.2956 144.71 51.8696 143.766 51.3484V51.3839C143.547 51.255 143.334 51.1151 143.129 50.9647C142.097 50.3008 141.379 49.2439 141.14 48.0374C141.072 47.6846 141.124 47.319 141.289 47C141.615 46.5823 142.052 46.2648 142.549 46.0834C143.043 45.8711 143.495 45.5728 143.886 45.2024C144.855 44.1656 144.509 42.7527 144.205 41.5098L144.205 41.5076C144.134 41.2234 144.063 40.9392 144.006 40.6692C143.688 39.0451 144.123 37.3637 145.188 36.1005C146.359 34.7824 148.087 34.1063 149.838 34.2816C152.343 34.5729 154.31 35.7595 155.23 37.5429C156.041 39.2485 155.923 41.2522 154.919 42.8505C154.472 43.502 154.238 44.2764 154.247 45.0674C154.402 45.7923 154.763 46.4563 155.287 46.9787C155.704 47.3963 156.007 47.9152 156.165 48.485C156.271 49.3447 155.634 50.2258 154.148 51.1992C152.06 52.5279 149.718 53.6434 146.731 52.6203Z" fill="#D1D3D4"/>
<path fill-rule="evenodd" clip-rule="evenodd" d="M163.036 52.4284C164.712 53.1313 166.507 53.5052 168.323 53.5297C169.379 53.551 170.433 53.4048 171.444 53.0963C173.586 52.4175 175.257 50.7214 175.909 48.5632C176.366 46.9092 175.922 45.1361 174.742 43.895C172.59 41.5218 167.12 40.5768 164.289 41.5218C163.68 41.739 163.084 41.9929 162.506 42.2821C161.623 42.7646 160.666 43.096 159.675 43.2626C158.382 43.3152 157.092 43.1174 155.874 42.68C154.176 42.1968 152.428 41.7066 150.786 42.4171C149.082 43.2589 148.121 45.116 148.415 47C148.655 48.5255 149.329 49.9491 150.354 51.0997C151.562 52.6453 153.465 53.4738 155.414 53.3024C156.273 53.1525 157.103 52.8722 157.877 52.4711C159.313 51.4937 161.177 51.4221 162.682 52.2863L163.036 52.4284ZM160.658 50.9718H160.489C159.481 51.0454 158.501 51.3362 157.615 51.8245C156.908 52.1931 156.149 52.4541 155.365 52.5989C153.242 52.8689 151.671 51.4763 150.921 50.6308C149.975 49.5822 149.351 48.2821 149.123 46.8863C148.873 45.3206 149.652 43.7708 151.055 43.0424C152.459 42.4189 154.011 42.8622 155.648 43.3297L155.662 43.3337C156.969 43.7993 158.353 44.0067 159.738 43.9447C160.798 43.7575 161.819 43.395 162.76 42.8718C163.314 42.6001 163.883 42.3628 164.466 42.1613C167.056 41.2874 172.229 42.2039 174.168 44.3355C175.184 45.4027 175.568 46.9263 175.18 48.35C174.586 50.2721 173.088 51.7782 171.175 52.3787C168.558 53.1008 165.772 52.8821 163.298 51.7605L162.958 51.6184C162.235 51.2697 161.457 51.0509 160.658 50.9718Z" fill="#D1D3D4"/>
<path fill-rule="evenodd" clip-rule="evenodd" d="M164.806 47.1492C165.432 47.877 166.362 48.2688 167.318 48.2079L167.764 48.2221C169.625 48.1799 171.427 47.5593 172.923 46.4458C175.768 44.1366 174.855 41.8558 174.055 40.7047C171.798 37.4505 164.876 35.1555 161.147 37.3582C159.782 38.191 158.831 39.5638 158.528 41.1382C158.281 42.3401 158.568 43.5907 159.314 44.5629C159.983 45.3485 160.953 45.8131 161.982 45.8418C162.554 45.8917 163.112 46.0433 163.631 46.2895C164.064 46.5132 164.461 46.8033 164.806 47.1492ZM161.508 37.9337C162.509 37.3937 163.634 37.1289 164.77 37.1663C168.068 37.1663 171.96 38.8929 173.475 41.0813C174.6 42.7368 174.282 44.3924 172.477 45.8632C171.087 46.8649 169.431 47.4266 167.721 47.476C166.819 47.6592 165.889 47.3352 165.294 46.6305C164.46 45.722 163.309 45.1722 162.081 45.0958C161.233 45.0865 160.43 44.7142 159.873 44.0726C159.25 43.2675 159.014 42.2269 159.229 41.2305C159.494 39.859 160.321 38.6625 161.508 37.9337Z" fill="#D1D3D4"/>
<path d="M59.317 45.6216C59.317 45.6216 61.6028 43.76 59.317 41.3584H55.6299C55.6299 41.3584 56.4225 44.4634 55.6299 45.6216H59.317Z" fill="#231F20"/>
<path fill-rule="evenodd" clip-rule="evenodd" d="M55.6298 45.9768H59.3169C59.3893 45.9714 59.4583 45.9441 59.5151 45.8987C60.1624 45.3376 60.5723 44.5499 60.6615 43.6961C60.6721 42.7156 60.2653 41.7772 59.5434 41.1168C59.4743 41.0513 59.3836 41.0134 59.2886 41.0103H55.6015C55.4916 41.0096 55.3874 41.0593 55.3185 41.1453C55.2555 41.2363 55.2325 41.3493 55.2548 41.4579C55.4671 42.275 55.8846 44.5842 55.3114 45.4155C55.2441 45.5294 55.2441 45.6711 55.3114 45.785C55.3752 45.902 55.497 45.9753 55.6298 45.9768ZM59.1754 45.2663H56.1818C56.3962 44.0892 56.3528 42.8793 56.0545 41.7208H59.14C59.6627 42.2235 59.957 42.9196 59.9538 43.6463C59.8945 44.2621 59.6185 44.8365 59.1754 45.2663Z" fill="#231F20"/>
<path d="M57.3141 44.2147C57.4228 43.3744 57.1257 42.5325 56.5145 41.9482C56.2441 41.595 55.9329 41.2754 55.5874 40.9961C54.9237 40.5628 54.1801 40.268 53.4006 40.1292C51.6809 39.71 49.6711 40.2429 47.916 40.2784C46.0307 40.3143 44.1577 39.9663 42.4101 39.2553C41.8097 39.0517 41.2712 38.697 40.8461 38.225C40.4074 40.8042 40.464 43.6463 41.9431 45.8134C43.1963 47.4493 44.9289 48.6495 46.8969 49.2453C49.5605 50.3241 52.5961 49.8817 54.8443 48.0871C55.8535 47.3221 56.6324 46.2917 57.0948 45.11C57.1973 44.8196 57.2708 44.5197 57.3141 44.2147Z" fill="white"/>
<path fill-rule="evenodd" clip-rule="evenodd" d="M46.7483 49.5792C47.7779 49.9585 48.8646 50.158 49.9613 50.1689C51.8167 50.1558 53.612 49.5065 55.0496 48.3287C56.1076 47.5204 56.925 46.4368 57.4133 45.1953C57.5343 44.8834 57.6221 44.5594 57.6751 44.2289C57.8047 43.2882 57.4817 42.3415 56.8047 41.6782C56.5117 41.3092 56.1821 40.9712 55.821 40.6692C55.1172 40.2073 54.3276 39.8931 53.4997 39.7455C52.2564 39.5286 50.9852 39.5286 49.7419 39.7455C49.6603 39.7546 49.5792 39.7639 49.4988 39.773C48.9512 39.8353 48.4291 39.8947 47.9231 39.8947C46.0805 39.9516 44.245 39.64 42.5234 38.9782C41.9829 38.7923 41.4967 38.475 41.108 38.0545C41.0242 37.943 40.8821 37.8927 40.7471 37.9266C40.6125 37.9626 40.5106 38.0733 40.4853 38.2108C39.9262 41.4508 40.3083 44.0868 41.6317 46.0266C42.9248 47.7194 44.7144 48.962 46.7483 49.5792ZM42.2191 45.6074C41.0797 43.9234 40.7117 41.7208 41.0797 38.9497C41.4363 39.2178 41.8236 39.442 42.2333 39.6176C44.0331 40.3383 45.9574 40.6933 47.8948 40.6621C48.4585 40.6489 49.0585 40.587 49.6388 40.5272C49.6851 40.5224 49.7313 40.5176 49.7773 40.5129C50.9482 40.3107 52.1448 40.3107 53.3157 40.5129C54.048 40.6422 54.7478 40.915 55.3751 41.3158C55.6961 41.5636 55.9903 41.8446 56.2527 42.1542C56.7896 42.6671 57.0522 43.4054 56.9603 44.1437C56.9095 44.4254 56.8313 44.7015 56.7268 44.9679C56.2917 46.0926 55.5573 47.0757 54.6037 47.81C52.4455 49.5208 49.5404 49.941 46.989 48.9113C45.0925 48.341 43.4234 47.1849 42.2191 45.6074Z" fill="#231F20"/>
<rect x="101" y="25.6913" width="30.0486" height="19.9232" fill="white"/>
<path fill-rule="evenodd" clip-rule="evenodd" d="M101 45.9768H131.049C131.242 45.9731 131.399 45.8162 131.402 45.6216V25.6842C131.399 25.4896 131.242 25.3327 131.049 25.3289H101C100.805 25.3289 100.646 25.488 100.646 25.6842V45.6216C100.646 45.8178 100.805 45.9768 101 45.9768ZM130.723 45.2663H101.326L101.354 26.0466H130.723V45.2663Z" fill="#D1D3D4"/>
<rect x="101" y="45.6216" width="30.0486" height="3.94342" fill="white"/>
<path fill-rule="evenodd" clip-rule="evenodd" d="M101 49.9203H131.049C131.244 49.9203 131.402 49.7612 131.402 49.565V45.6216C131.402 45.4254 131.244 45.2663 131.049 45.2663H101C100.805 45.2663 100.646 45.4254 100.646 45.6216V49.565C100.646 49.7612 100.805 49.9203 101 49.9203ZM130.723 49.2097H101.326L101.354 45.9768H130.723V49.2097Z" fill="#D1D3D4"/>
<path d="M104.439 40.9818C104.301 40.9873 104.173 40.91 104.113 40.785C104.053 40.66 104.073 40.5113 104.163 40.4063C104.503 39.98 112.656 29.9403 120.256 30.5442C123.285 30.7858 125.352 32.3774 125.79 34.8074C126.197 36.9466 125.12 39.0929 123.165 40.0368C121.042 41.0245 119.074 41.0103 117.702 39.9942C116.487 39.0206 115.923 37.4426 116.244 35.9158C116.302 34.5906 117.192 33.4488 118.459 33.0737C119.763 32.7284 121.152 33.1232 122.082 34.1039C122.512 34.5795 122.605 35.272 122.316 35.8447C121.778 36.8892 121.141 37.4363 120.419 37.4647C119.266 37.4647 118.416 36.1503 118.381 36.0934C118.332 36.0125 118.317 35.9152 118.339 35.8231C118.362 35.731 118.42 35.6518 118.501 35.6032C118.581 35.554 118.677 35.5391 118.767 35.5618C118.858 35.5846 118.935 35.643 118.982 35.7239C119.166 36.0153 119.754 36.7897 120.398 36.7542C121.042 36.7187 121.403 36.0437 121.686 35.5179C121.846 35.1956 121.783 34.8067 121.53 34.5516C120.781 33.7873 119.683 33.4837 118.65 33.7558C117.66 34.0626 116.974 34.9682 116.944 36.0082C116.667 37.2742 117.121 38.5892 118.119 39.4116C119.273 40.2713 121.006 40.2642 122.868 39.4116C124.535 38.5934 125.438 36.7453 125.062 34.921C124.686 32.8392 122.861 31.4679 120.171 31.2547C112.974 30.6579 104.793 40.7474 104.715 40.8539C104.647 40.9353 104.546 40.9821 104.439 40.9818Z" fill="#D1D3D4"/>
<path fill-rule="evenodd" clip-rule="evenodd" d="M104.595 64.145H116.173C116.368 64.145 116.527 63.9859 116.527 63.7897V54.5529C116.527 54.3567 116.368 54.1976 116.173 54.1976H104.595C104.4 54.1976 104.241 54.3567 104.241 54.5529V63.7897C104.241 63.9859 104.4 64.145 104.595 64.145ZM115.819 63.4345H104.949V54.9082H115.819V63.4345Z" fill="#D1D3D4"/>
<path d="M110.384 56.2368C110.189 56.2368 110.03 56.0778 110.03 55.8816V53.6718C110.03 53.4756 110.189 53.3166 110.384 53.3166C110.579 53.3166 110.738 53.4756 110.738 53.6718V55.8674C110.742 55.964 110.706 56.0581 110.639 56.1278C110.573 56.1975 110.48 56.2369 110.384 56.2368Z" fill="#D1D3D4"/>
<defs>
<linearGradient id="paint0_linear_0_1" x1="0" y1="202" x2="202" y2="202" gradientUnits="userSpaceOnUse">
<stop stop-color="#5D0202" stop-opacity="0.01"/>
<stop offset="1" stop-color="#5D0202" stop-opacity="0.497569"/>
</linearGradient>
</defs>
</svg>
